<svg width="50" height="50" viewBox="0 0 50 50" fill="none" xmlns="http://www.w3.org/2000/svg">
<g clip-path="url(#clip0)">
<path d="M43.1818 5.68182H19.7818C19.1487 4.10501 18.0845 2.73829 16.7109 1.73804C15.3374 0.737799 13.71 0.144444 12.015 0.025878C10.3199 -0.0926878 8.62579 0.268326 7.12636 1.06761C5.62693 1.86689 4.3828 3.07214 3.53634 4.54546H11.3636L13.6363 9.09091L11.3636 13.6364H3.5318C4.37782 15.111 5.62207 16.3174 7.12204 17.1176C8.622 17.9177 10.317 18.2792 12.0129 18.1606C13.7088 18.042 15.337 17.4481 16.711 16.447C18.085 15.4459 19.1492 14.078 19.7818 12.5H43.1818C44.0859 12.5 44.9531 12.1408 45.5924 11.5015C46.2317 10.8622 46.5909 9.99506 46.5909 9.09091C46.5909 8.18677 46.2317 7.31965 45.5924 6.68032C44.9531 6.04099 44.0859 5.68182 43.1818 5.68182Z" fill="#CCCCCC"/>
<path d="M37.7727 31.9727L36.6409 26.5C36.47 25.4451 35.9284 24.4856 35.1136 23.7941C34.2988 23.1026 33.2641 22.7243 32.1954 22.7273H17.8045C15.5863 22.7273 13.7136 24.3182 13.3727 26.4091L12.2272 31.9818C11.3504 32.1536 10.5599 32.6228 9.98922 33.3103C9.41857 33.9977 9.10283 34.8612 9.0954 35.7546V45.4546H11.3681C11.3681 46.6601 11.847 47.8162 12.6995 48.6687C13.5519 49.5211 14.7081 50 15.9136 50C17.1191 50 18.2753 49.5211 19.1277 48.6687C19.9801 47.8162 20.459 46.6601 20.459 45.4546H29.5499C29.5499 46.6601 30.0288 47.8162 30.8813 48.6687C31.7337 49.5211 32.8899 50 34.0954 50C35.3009 50 36.4571 49.5211 37.3095 48.6687C38.162 47.8162 38.6409 46.6601 38.6409 45.4546H40.909V35.7273C40.909 33.8409 39.5454 32.3455 37.7727 31.9727ZM17.0454 40.9091C16.1413 40.9091 15.2741 40.5499 14.6348 39.9106C13.9955 39.2713 13.6363 38.4042 13.6363 37.5C13.6363 36.5959 13.9955 35.7287 14.6348 35.0894C15.2741 34.4501 16.1413 34.0909 17.0454 34.0909C17.9495 34.0909 18.8167 34.4501 19.456 35.0894C20.0953 35.7287 20.4545 36.5959 20.4545 37.5C20.4545 38.4042 20.0953 39.2713 19.456 39.9106C18.8167 40.5499 17.9495 40.9091 17.0454 40.9091ZM16.8772 31.8182L17.8045 27.2727L32.1772 27.3273L33.1045 31.8182H16.8772ZM32.9545 40.9091C32.0503 40.9091 31.1832 40.5499 30.5439 39.9106C29.9046 39.2713 29.5454 38.4042 29.5454 37.5C29.5454 36.5959 29.9046 35.7287 30.5439 35.0894C31.1832 34.4501 32.0503 34.0909 32.9545 34.0909C33.8586 34.0909 34.7258 34.4501 35.3651 35.0894C36.0044 35.7287 36.3636 36.5959 36.3636 37.5C36.3636 38.4042 36.0044 39.2713 35.3651 39.9106C34.7258 40.5499 33.8586 40.9091 32.9545 40.9091Z" fill="#CCCCCC"/>
</g>
<defs>
<clipPath id="clip0">
<rect width="50" height="50" fill="white"/>
</clipPath>
</defs>
</svg>
