<svg width="241" height="50" viewBox="0 0 241 50" fill="none" xmlns="http://www.w3.org/2000/svg">
<g clip-path="url(#clip0)">
<path d="M43.1818 5.68182H19.7818C19.1487 4.10501 18.0845 2.73829 16.7109 1.73804C15.3374 0.737799 13.71 0.144444 12.015 0.025878C10.3199 -0.0926878 8.62579 0.268326 7.12636 1.06761C5.62693 1.86689 4.3828 3.07214 3.53634 4.54546H11.3636L13.6363 9.09091L11.3636 13.6364H3.5318C4.37782 15.111 5.62207 16.3174 7.12204 17.1176C8.622 17.9177 10.317 18.2792 12.0129 18.1606C13.7088 18.042 15.337 17.4481 16.711 16.447C18.085 15.4459 19.1492 14.078 19.7818 12.5H43.1818C44.0859 12.5 44.9531 12.1408 45.5924 11.5015C46.2317 10.8622 46.5909 9.99506 46.5909 9.09091C46.5909 8.18677 46.2317 7.31965 45.5924 6.68032C44.9531 6.04099 44.0859 5.68182 43.1818 5.68182Z" fill="#292929"/>
<path d="M37.7727 31.9727L36.6409 26.5C36.47 25.4451 35.9284 24.4856 35.1136 23.7941C34.2988 23.1026 33.2641 22.7243 32.1954 22.7273H17.8045C15.5863 22.7273 13.7136 24.3182 13.3727 26.4091L12.2272 31.9818C11.3504 32.1536 10.5599 32.6228 9.98922 33.3103C9.41857 33.9977 9.10283 34.8612 9.0954 35.7546V45.4546H11.3681C11.3681 46.6601 11.847 47.8162 12.6995 48.6687C13.5519 49.5211 14.7081 50 15.9136 50C17.1191 50 18.2753 49.5211 19.1277 48.6687C19.9801 47.8162 20.459 46.6601 20.459 45.4546H29.5499C29.5499 46.6601 30.0288 47.8162 30.8813 48.6687C31.7337 49.5211 32.8899 50 34.0954 50C35.3009 50 36.4571 49.5211 37.3095 48.6687C38.162 47.8162 38.6409 46.6601 38.6409 45.4546H40.909V35.7273C40.909 33.8409 39.5454 32.3455 37.7727 31.9727ZM17.0454 40.9091C16.1413 40.9091 15.2741 40.5499 14.6348 39.9106C13.9955 39.2713 13.6363 38.4042 13.6363 37.5C13.6363 36.5959 13.9955 35.7287 14.6348 35.0894C15.2741 34.4501 16.1413 34.0909 17.0454 34.0909C17.9495 34.0909 18.8167 34.4501 19.456 35.0894C20.0953 35.7287 20.4545 36.5959 20.4545 37.5C20.4545 38.4042 20.0953 39.2713 19.456 39.9106C18.8167 40.5499 17.9495 40.9091 17.0454 40.9091ZM16.8772 31.8182L17.8045 27.2727L32.1772 27.3273L33.1045 31.8182H16.8772ZM32.9545 40.9091C32.0503 40.9091 31.1832 40.5499 30.5439 39.9106C29.9046 39.2713 29.5454 38.4042 29.5454 37.5C29.5454 36.5959 29.9046 35.7287 30.5439 35.0894C31.1832 34.4501 32.0503 34.0909 32.9545 34.0909C33.8586 34.0909 34.7258 34.4501 35.3651 35.0894C36.0044 35.7287 36.3636 36.5959 36.3636 37.5C36.3636 38.4042 36.0044 39.2713 35.3651 39.9106C34.7258 40.5499 33.8586 40.9091 32.9545 40.9091Z" fill="#292929"/>
</g>
<path d="M88.3086 24.7832C88.3086 27.3027 87.8633 29.5117 86.9727 31.4102C86.082 33.3086 84.8047 34.7734 83.1406 35.8047C81.4883 36.8359 79.5898 37.3516 77.4453 37.3516C75.3242 37.3516 73.4316 36.8418 71.7676 35.8223C70.1035 34.8027 68.8145 33.3496 67.9004 31.4629C66.9863 29.5645 66.5234 27.3848 66.5117 24.9238V23.6582C66.5117 21.1387 66.9629 18.9238 67.8652 17.0137C68.7793 15.0918 70.0625 13.6211 71.7148 12.6016C73.3789 11.5703 75.2773 11.0547 77.4102 11.0547C79.543 11.0547 81.4355 11.5703 83.0879 12.6016C84.752 13.6211 86.0352 15.0918 86.9375 17.0137C87.8516 18.9238 88.3086 21.1328 88.3086 23.6406V24.7832ZM82.9648 23.623C82.9648 20.9395 82.4844 18.9004 81.5234 17.5059C80.5625 16.1113 79.1914 15.4141 77.4102 15.4141C75.6406 15.4141 74.2754 16.1055 73.3145 17.4883C72.3535 18.8594 71.8672 20.875 71.8555 23.5352V24.7832C71.8555 27.3965 72.3359 29.4238 73.2969 30.8652C74.2578 32.3066 75.6406 33.0273 77.4453 33.0273C79.2148 33.0273 80.5742 32.3359 81.5234 30.9531C82.4727 29.5586 82.9531 27.5312 82.9648 24.8711V23.623ZM93.0371 37V21.707H90.207V17.9805H93.0371V17.1016C93.0605 14.7109 93.793 12.8711 95.2344 11.582C96.6875 10.2812 98.7324 9.63086 101.369 9.63086C102.951 9.63086 104.873 9.97656 107.135 10.668L106.396 14.8691C105.248 14.5293 104.357 14.3125 103.725 14.2188C103.092 14.1133 102.412 14.0605 101.686 14.0605C99.3184 14.0605 98.1348 15.1094 98.1348 17.207V17.9805H101.879V21.707H98.1348V37H93.0371ZM109.508 37H104.41V17.9805H109.508V37ZM121.619 33.2559C122.557 33.2559 123.318 32.998 123.904 32.4824C124.49 31.9668 124.795 31.2812 124.818 30.4258H129.582C129.57 31.7148 129.219 32.8984 128.527 33.9766C127.836 35.043 126.887 35.875 125.68 36.4727C124.484 37.0586 123.16 37.3516 121.707 37.3516C118.988 37.3516 116.844 36.4902 115.273 34.7676C113.703 33.0332 112.918 30.6426 112.918 27.5957V27.2617C112.918 24.332 113.697 21.9941 115.256 20.248C116.814 18.502 118.953 17.6289 121.672 17.6289C124.051 17.6289 125.955 18.3086 127.385 19.668C128.826 21.0156 129.559 22.8145 129.582 25.0645H124.818C124.795 24.0801 124.49 23.2832 123.904 22.6738C123.318 22.0527 122.545 21.7422 121.584 21.7422C120.4 21.7422 119.504 22.1758 118.895 23.043C118.297 23.8984 117.998 25.293 117.998 27.2266V27.7539C117.998 29.7109 118.297 31.1172 118.895 31.9727C119.492 32.8281 120.4 33.2559 121.619 33.2559ZM137.844 37H132.746V17.9805H137.844V37ZM132.447 13.0586C132.447 12.2969 132.699 11.6699 133.203 11.1777C133.719 10.6855 134.416 10.4395 135.295 10.4395C136.162 10.4395 136.854 10.6855 137.369 11.1777C137.885 11.6699 138.143 12.2969 138.143 13.0586C138.143 13.832 137.879 14.4648 137.352 14.957C136.836 15.4492 136.15 15.6953 135.295 15.6953C134.439 15.6953 133.748 15.4492 133.221 14.957C132.705 14.4648 132.447 13.832 132.447 13.0586ZM146.721 17.9805L146.879 20.1777C148.238 18.4785 150.061 17.6289 152.346 17.6289C154.361 17.6289 155.861 18.2207 156.846 19.4043C157.83 20.5879 158.334 22.3574 158.357 24.7129V37H153.277V24.8359C153.277 23.7578 153.043 22.9785 152.574 22.498C152.105 22.0059 151.326 21.7598 150.236 21.7598C148.807 21.7598 147.734 22.3691 147.02 23.5879V37H141.939V17.9805H146.721ZM173.246 37C173.012 36.543 172.842 35.9746 172.736 35.2949C171.506 36.666 169.906 37.3516 167.938 37.3516C166.074 37.3516 164.527 36.8125 163.297 35.7344C162.078 34.6562 161.469 33.2969 161.469 31.6562C161.469 29.6406 162.213 28.0938 163.701 27.0156C165.201 25.9375 167.363 25.3926 170.188 25.3809H172.525V24.291C172.525 23.4121 172.297 22.709 171.84 22.1816C171.395 21.6543 170.686 21.3906 169.713 21.3906C168.857 21.3906 168.184 21.5957 167.691 22.0059C167.211 22.416 166.971 22.9785 166.971 23.6934H161.891C161.891 22.5918 162.23 21.5723 162.91 20.6348C163.59 19.6973 164.551 18.9648 165.793 18.4375C167.035 17.8984 168.43 17.6289 169.977 17.6289C172.32 17.6289 174.178 18.2207 175.549 19.4043C176.932 20.5762 177.623 22.2285 177.623 24.3613V32.6055C177.635 34.4102 177.887 35.7754 178.379 36.7012V37H173.246ZM169.045 33.4668C169.795 33.4668 170.486 33.3027 171.119 32.9746C171.752 32.6348 172.221 32.1836 172.525 31.6211V28.3516H170.627C168.084 28.3516 166.73 29.2305 166.566 30.9883L166.549 31.2871C166.549 31.9199 166.771 32.4414 167.217 32.8516C167.662 33.2617 168.271 33.4668 169.045 33.4668ZM207.822 37H190.279V33.5195L198.559 24.6953C199.695 23.4531 200.533 22.3691 201.072 21.4434C201.623 20.5176 201.898 19.6387 201.898 18.8066C201.898 17.6699 201.611 16.7793 201.037 16.1348C200.463 15.4785 199.643 15.1504 198.576 15.1504C197.428 15.1504 196.52 15.5488 195.852 16.3457C195.195 17.1309 194.867 18.168 194.867 19.457H189.77C189.77 17.8984 190.139 16.4746 190.877 15.1855C191.627 13.8965 192.682 12.8887 194.041 12.1621C195.4 11.4238 196.941 11.0547 198.664 11.0547C201.301 11.0547 203.346 11.6875 204.799 12.9531C206.264 14.2188 206.996 16.0059 206.996 18.3145C206.996 19.5801 206.668 20.8691 206.012 22.1816C205.355 23.4941 204.23 25.0234 202.637 26.7695L196.818 32.9043H207.822V37ZM211.426 34.5039C211.426 33.6953 211.695 33.0391 212.234 32.5352C212.785 32.0312 213.471 31.7793 214.291 31.7793C215.123 31.7793 215.809 32.0312 216.348 32.5352C216.898 33.0391 217.174 33.6953 217.174 34.5039C217.174 35.3008 216.904 35.9512 216.365 36.4551C215.826 36.9473 215.135 37.1934 214.291 37.1934C213.459 37.1934 212.773 36.9473 212.234 36.4551C211.695 35.9512 211.426 35.3008 211.426 34.5039ZM238.654 26.418C238.654 29.957 237.922 32.6641 236.457 34.5391C234.992 36.4141 232.848 37.3516 230.023 37.3516C227.234 37.3516 225.102 36.4316 223.625 34.5918C222.148 32.752 221.393 30.1152 221.357 26.6816V21.9707C221.357 18.3965 222.096 15.6836 223.572 13.832C225.061 11.9805 227.199 11.0547 229.988 11.0547C232.777 11.0547 234.91 11.9746 236.387 13.8145C237.863 15.6426 238.619 18.2734 238.654 21.707V26.418ZM233.574 21.25C233.574 19.1289 233.281 17.5879 232.695 16.627C232.121 15.6543 231.219 15.168 229.988 15.168C228.793 15.168 227.908 15.6309 227.334 16.5566C226.771 17.4707 226.473 18.9062 226.438 20.8633V27.0859C226.438 29.1719 226.719 30.7246 227.281 31.7441C227.855 32.752 228.77 33.2559 230.023 33.2559C231.266 33.2559 232.162 32.7695 232.713 31.7969C233.264 30.8242 233.551 29.3359 233.574 27.332V21.25Z" fill="#292929"/>
<defs>
<clipPath id="clip0">
<rect width="50" height="50" fill="white"/>
</clipPath>
</defs>
</svg>
